<?xml version="1.0" standalone="no"?>
<!DOCTYPE svg PUBLIC "-//W3C//DTD SVG 1.1//EN" "http://www.w3.org/Graphics/SVG/1.1/DTD/svg11.dtd" >
<svg xmlns="http://www.w3.org/2000/svg">
<metadata>
This is a custom SVG font generated by IcoMoon.
<iconset grid="16"></iconset>
</metadata>
<defs>
<font id="fwicon" horiz-adv-x="512" >
<font-face units-per-em="512" ascent="480" descent="-32" />
<missing-glyph horiz-adv-x="512" />
<glyph class="hidden" unicode="&#xf000;" d="M0,480L 512 -32L0 -32 z" horiz-adv-x="0" />
<glyph unicode="&#xe000;" d="M 411.611,336.933c-11.575,12.361-133.248,133.175-133.248,133.175C 272.183,476.727, 264.101,480, 256,480s-16.183-3.273-22.363-9.893
	c0,0-121.655-120.814-133.248-133.175c-11.557-12.361-12.325-34.597,0-47.781c 12.343-13.166, 29.605-14.245, 44.727,0L 256,400l 110.866-110.866
	c 15.159-14.245, 32.402-13.166, 44.727,0C 423.936,302.336, 423.186,324.571, 411.611,336.933zM 411.593,111.086c-11.611-12.361-133.248-133.157-133.248-133.157C 272.183-28.69, 264.046-32, 255.982-32c-8.101,0-16.183,3.31-22.382,9.929
	c0,0-121.655,120.795-133.23,133.157c-11.575,12.361-12.343,34.578,0,47.762c 12.325,13.202, 29.55,14.226, 44.709,0l 110.885-110.811l 110.866,110.811
	c 15.141,14.226, 32.384,13.202, 44.745,0S 423.168,123.447, 411.593,111.086z"  />
<glyph unicode="&#xe001;" d="M 480.768,162.176C 464.055,180.151, 288.311,355.913, 288.311,355.913C 279.351,365.513, 267.703,370.286, 256,370.286s-23.369-4.773-32.293-14.373
	c0,0-175.744-175.762-192.475-193.737c-16.713-17.975-17.829-50.304,0-69.486c 17.829-19.163, 42.734-20.791, 64.585,0L 256,253.915l 160.146-161.225
	c 21.906-20.791, 46.83-19.163, 64.622,0C 498.56,111.872, 497.481,144.201, 480.768,162.176z"  />
<glyph unicode="&#xe002;" d="M 31.232,285.824c 16.713-17.957, 192.457-193.737, 192.457-193.737C 232.631,82.487, 244.279,77.714, 256,77.714s 23.387,4.773, 32.293,14.373
	c0,0, 175.744,175.762, 192.457,193.737c 16.713,17.975, 17.829,50.304,0,69.486c-17.829,19.163-42.734,20.791-64.585,0L 256,194.066L 95.854,355.31
	c-21.906,20.791-46.83,19.163-64.622,0C 13.44,336.128, 14.501,303.799, 31.232,285.824z"  />
<glyph unicode="&#xe003;" d="M 317.824,448.786C 299.849,432.073, 124.087,256.329, 124.087,256.329C 114.487,247.387, 109.714,235.739, 109.714,224.018s 4.773-23.387, 14.373-32.293
	c0,0, 175.762-175.744, 193.737-192.457c 17.975-16.713, 50.304-17.829, 69.486,0c 19.163,17.829, 20.791,42.734,0,64.585l-161.225,160.165l 161.225,160.146
	c 20.791,21.906, 19.163,46.83,0,64.622C 368.128,466.578, 335.799,465.518, 317.824,448.786z"  />
<glyph unicode="&#xe004;" d="M 194.176-0.768c 17.957,16.713, 193.737,192.457, 193.737,192.457C 397.513,200.649, 402.286,212.297, 402.286,224s-4.773,23.387-14.373,32.293
	c0,0-175.762,175.744-193.737,192.457c-17.975,16.713-50.304,17.829-69.486,0c-19.163-17.829-20.791-42.734,0-64.585L 285.934,224l-161.225-160.146
	c-20.791-21.906-19.163-46.83,0-64.622C 143.872-18.56, 176.201-17.481, 194.176-0.768z"  />
<glyph unicode="&#xe005;" d="M 35.145,84.096c-8.046-8.521-21.047-8.521-29.129,0c-8.009,8.466-8.027,22.29,0,30.793L 241.408,363.867
	c 8.046,8.521, 21.083,8.521, 29.166,0l 235.429-248.997c 8.009-8.503, 8.009-22.327,0-30.793c-8.046-8.521-21.102-8.521-29.184,0L 256,311.131
	L 35.145,84.096z"  />
<glyph unicode="&#xe006;" d="M 476.855,363.867c 8.046,8.521, 21.047,8.521, 29.129,0c 8.009-8.466, 8.027-22.29,0-30.793L 270.592,84.096
	c-8.046-8.521-21.083-8.521-29.166,0L 5.998,333.093c-8.009,8.503-8.009,22.327,0,30.793c 8.046,8.521, 21.102,8.521, 29.184,0L 256,136.832
	L 476.855,363.867z"  />
<glyph unicode="&#xe007;" d="M 395.886,3.145c 8.521-8.046, 8.521-21.047,0-29.129c-8.466-8.009-22.29-8.027-30.793,0L 116.096,209.408
	c-8.503,8.046-8.503,21.083,0,29.166L 365.111,473.984c 8.503,8.009, 22.327,8.009, 30.793,0c 8.521-8.046, 8.521-21.102,0-29.184L 168.85,224
	L 395.886,3.145z"  />
<glyph unicode="&#xe008;" d="M 116.114,444.855c-8.521,8.046-8.521,21.047,0,29.129c 8.466,8.009, 22.29,8.027, 30.793,0L 395.886,238.592c 8.521-8.046, 8.521-21.083,0-29.166
	L 146.889-26.002c-8.503-8.009-22.327-8.009-30.793,0c-8.521,8.046-8.521,21.102,0,29.184L 343.15,224L 116.114,444.855z"  />
<glyph unicode="&#xe009;" d="M 190.574-32c-16.713,0-32.494,7.442-42.661,20.206l-137.106,172.581c-17.81,22.455-13.166,54.418, 10.35,71.424
			c 23.625,17.042, 57.106,12.562, 74.953-9.856l 90.167-113.481L 413.074,455.991c 15.634,23.881, 48.622,31.177, 73.728,16.329
			c 25.070-14.885, 32.695-46.318, 17.115-70.217L 235.959-7.973c-9.271-14.245-25.326-23.223-42.935-23.991C 192.219-32, 191.378-32, 190.574-32z"  />
<glyph unicode="&#xe00a;" d="M 359.424,224l 131.145,131.127c 28.581,28.562, 28.581,74.88,0,103.424c-28.581,28.581-74.862,28.581-103.424,0L 256,327.424
	L 124.855,458.569c-28.581,28.581-74.862,28.581-103.424,0c-28.581-28.562-28.581-74.88,0-103.424L 152.576,224l-131.145-131.145
	c-28.581-28.581-28.581-74.898,0-103.424C 35.712-24.85, 54.437-32, 73.143-32s 37.431,7.15, 51.712,21.431L 256,120.576l 131.145-131.145
	C 401.426-24.85, 420.151-32, 438.857-32s 37.431,7.15, 51.712,21.431c 28.581,28.581, 28.581,74.862,0,103.424L 359.424,224z"  />
<glyph unicode="&#xe00b;" d="M 252.581,479.982C 111.195,478.098-1.865,361.947, 0.018,220.562c 1.865-141.312, 118.034-254.409, 259.401-252.544
	c 141.33,1.902, 254.409,118.071, 252.562,259.438C 510.098,368.786, 393.911,481.865, 252.581,479.982z M 251.813,68.187l-1.39,0 
	c-21.778,0.64-37.12,16.677-36.535,38.126c 0.64,21.083, 16.347,36.407, 37.376,36.407l 1.262-0.018c 22.418-0.677, 37.559-16.549, 36.937-38.619
	C 288.878,82.962, 273.39,68.187, 251.813,68.187z M 343.351,249.929c-5.083-7.278-16.366-16.293-30.519-27.337l-15.616-10.789
	c-8.576-6.656-13.769-12.965-15.707-19.127c-1.518-4.864-2.267-6.126-2.395-16l-0.037-2.542L 219.429,174.135 l 0.165,5.065
	c 0.731,20.754, 1.243,32.933, 9.838,43.026c 13.513,15.854, 43.264,34.999, 44.526,35.822c 4.242,3.182, 7.863,6.857, 10.533,10.752
	c 6.254,8.631, 9.051,15.433, 9.051,22.089c0,9.289-2.725,17.865-8.192,25.49c-5.248,7.369-15.159,11.081-29.495,11.081
	c-14.263,0-24.009-4.517-29.824-13.787c-6.016-9.527-9.051-19.529-9.051-29.751l0-2.542 L 155.429,281.381 l 0.128,2.633c 1.591,37.687, 15.031,64.786, 39.936,80.64
	c 15.671,10.075, 35.127,15.177, 57.893,15.177c 29.733,0, 54.875-7.223, 74.642-21.486c 20.041-14.464, 30.171-36.096, 30.171-64.311
	C 358.217,278.235, 353.243,263.424, 343.351,249.929z"  />
<glyph unicode="&#xe00c;" d="M 252.562,479.982C 111.195,478.098-1.865,361.947, 0.018,220.581c 1.847-141.33, 118.034-254.446, 259.419-252.562
	c 141.312,1.902, 254.391,118.071, 252.544,259.438C 510.098,368.786, 393.911,481.865, 252.562,479.982z M 256.128,41.143l-1.317,0 
	c-21.102,0.622-35.931,16.384-35.365,37.413C 220.050,99.255, 235.246,114.286, 255.598,114.286l 1.262-0.018c 21.669-0.658, 36.334-16.274, 35.694-37.906
	C 291.986,55.643, 277.010,41.143, 256.128,41.143z M 292.571,169.143l-73.143,0 L 219.429,370.286 l 73.143,0 L 292.571,169.143 z"  />
<glyph unicode="&#xe00d;" d="M 252.562,479.982C 111.195,478.098-1.865,361.947, 0.018,220.581c 1.847-141.33, 118.034-254.446, 259.419-252.562
	c 141.312,1.902, 254.391,118.071, 252.544,259.438C 510.098,368.786, 393.911,481.865, 252.562,479.982z M 397.678,310.254l-153.125-219.648
	c-5.303-7.662-14.482-12.453-24.539-12.855C 219.557,77.714, 219.081,77.714, 218.624,77.714c-9.545,0-18.56,3.986-24.357,10.843l-78.354,92.453
	c-10.185,12.032-7.534,29.184, 5.925,38.254c 13.477,9.143, 32.622,6.729, 42.807-5.285l 51.529-60.8L 345.783,339.127
	c 8.887,12.8, 27.758,16.695, 42.112,8.759C 402.213,339.895, 406.565,323.054, 397.678,310.254z"  />
<glyph unicode="&#xe00e;" d="M 271.451,116.773c-10.661,0-20.937,4.059-28.544,11.355l-101.303,97.298c-15.762,15.141-15.762,39.662,0,54.802
			c 15.762,15.141, 41.307,15.141, 57.088,0l 66.67-63.963l 172.745,246.619c 12.471,17.774, 37.541,22.473, 56.027,10.533
			c 18.505-11.922, 23.424-36.023, 10.99-53.797L 304.969,133.888c-6.766-9.6-17.591-15.817-29.623-16.933C 274.048,116.846, 272.768,116.773, 271.451,116.773
			L 271.451,116.773zM 420.571,196.754L 420.571,96 c0-14.263-19.401-36.571-34.213-36.571L 117.285,59.429 c-14.848,0-26.898,4.023-26.898,18.286L 90.386,340.425 C 90.386,354.67, 102.437,370.286, 117.285,370.286l 187.282,0 l 35.895,54.857
		L 117.285,425.143 C 72.777,425.143, 36.571,383.159, 36.571,340.425l0-258.341 C 36.571,39.333, 65.207,4.571, 109.714,4.571l 292.571,0 c 44.526,0, 73.143,34.761, 73.143,77.495L 475.429,274.249 L 420.571,196.754z"  />
<glyph unicode="&#xe00f;" d="M 85.321,24.887c0-31.397, 25.472-56.869, 56.887-56.869c 31.433,0, 56.869,25.49, 56.869,56.869c0,31.451-25.435,56.887-56.869,56.887
	C 110.793,81.792, 85.321,56.338, 85.321,24.887z M 369.755,24.887c0-31.397, 25.509-56.869, 56.869-56.869c 31.451,0, 56.869,25.49, 56.869,56.869
	c0,31.451-25.435,56.887-56.869,56.887C 395.246,81.792, 369.755,56.338, 369.755,24.887z M 186.222,159.36l 314.789,89.966
	C 507.081,251.026, 512,257.573, 512,263.808L 512,406.857 L 109.714,406.857 L 109.714,468.608 C 109.714,474.88, 104.613,479.982, 98.341,479.982L 11.392,479.982 C 5.12,479.982,0,474.88,0,468.608L0,406.857 l 55.278,0 l 55.954-241.353
	l 5.376-26.825L 116.608,96 c0-6.254, 5.12-11.374, 11.392-11.374L 142.208,77.714l 284.416,0 l 73.984,0 C 506.843,77.714, 512,89.746, 512,96l0,36.571 L 192.055,132.571 
	C 159.36,132.571, 158.683,151.497, 186.222,159.36z"  />
<glyph unicode="&#xe010;" d="M 398.866,138.679c-19.694,0-37.669-6.638-52.169-17.701l-149.12,89.051c 0.768,4.553, 1.243,9.216, 1.243,13.97
		c0,4.773-0.475,9.417-1.243,13.97l 149.12,89.088c 14.501-11.081, 32.457-17.719, 52.169-17.719c 47.305,0, 85.705,38.217, 85.705,85.339
		C 484.571,441.783, 446.171,480, 398.866,480c-47.36,0-85.723-38.217-85.723-85.339c0-4.773, 0.439-9.417, 1.243-13.97l-149.138-89.070
		C 150.802,302.702, 132.773,309.339, 113.115,309.339C 65.792,309.339, 27.429,271.122, 27.429,224s 38.345-85.321, 85.687-85.321c 19.657,0, 37.687,6.638, 52.169,17.719
		l 149.138-89.070c-0.805-4.571-1.243-9.216-1.243-13.97c0-47.141, 38.363-85.358, 85.723-85.358c 47.305,0, 85.705,38.217, 85.705,85.358
		C 484.571,100.462, 446.171,138.679, 398.866,138.679z"  />
<glyph unicode="&#xe011;" d="M 499.529,40.795l-122.514,122.551c-1.408,1.39-2.962,2.542-4.48,3.657c 20.699,31.744, 32.805,69.595, 32.805,110.336
	C 405.339,389.285, 314.606,480, 202.661,480C 90.752,480,0,389.285,0,277.339c0-111.945, 90.752-202.661, 202.661-202.661c 40.722,0, 78.592,12.123, 110.391,32.805
	c 1.152-1.518, 2.249-3.054, 3.621-4.48l 122.496-122.514C 447.561-27.813, 458.478-32, 469.339-32c 10.898,0, 21.815,4.187, 30.19,12.507
	C 516.169-2.853, 516.169,24.155, 499.529,40.795z M 202.661,138.697c-76.471,0-138.661,62.208-138.661,138.661C 64,353.792, 126.208,416, 202.661,416
	c 76.416,0, 138.661-62.208, 138.661-138.661C 341.339,200.905, 279.095,138.697, 202.661,138.697z"  />
<glyph unicode="&#xe012;" d="M 256,480C 165.12,480, 91.429,408.357, 91.429,320C 91.429,167.241, 256-32, 256-32s 164.571,199.241, 164.571,352C 420.571,408.357, 346.88,480, 256,480z M 256,224
		c-50.505,0-91.429,40.942-91.429,91.41C 164.571,365.915, 205.495,406.857, 256,406.857c 50.505,0, 91.429-40.942, 91.429-91.447C 347.429,264.942, 306.505,224, 256,224z"  />
<glyph unicode="&#xe013;" d="M 16.073,358.674c 13.934-7.205, 206.866-107.136, 214.053-110.866C 237.33,244.096, 246.619,242.286, 256,242.286s 18.67,1.81, 25.856,5.522
		c 7.205,3.749, 200.101,103.662, 214.053,110.866C 509.861,365.897, 523.063,388.571, 497.408,388.571L 14.537,388.571 C-11.045,388.571, 2.121,365.897, 16.073,358.674z M 500.974,294.985
		c-15.762-8.009-209.536-106.587-219.191-111.47c-9.655-4.882-16.421-5.559-25.783-5.559s-16.11,0.677-25.783,5.559
		c-9.655,4.901-203.392,103.461-219.191,111.47C-0.073,300.617,0,294.016,0,288.914s0-202.971,0-202.971C0,74.35, 15.89,59.429, 28.233,59.429l 455.552,0 
		C 496.11,59.429, 512,74.35, 512,85.943c0,0,0,197.87,0,202.971S 512.073,300.617, 500.974,294.985z"  />
<glyph unicode="&#xe014;" d="M 512,261.138c0-45.367-12.837-85.486-38.546-120.247c-25.655-34.834-55.003-52.242-88.009-52.242c-14.555,0-27.154,4.023-37.833,12.215
	c-10.661,8.174-17.445,18.597-20.389,31.25c-21.76-31.762-53.76-47.689-95.927-47.689c-30.592,0-56.302,11.246-77.129,33.701
	c-20.846,22.4-31.269,50.231-31.269,83.438c0,39.662, 13.312,74.368, 40.009,103.808c 26.642,29.422, 57.947,44.197, 93.824,44.197
	c 36.827,0, 62.775-13.349, 77.824-40.009l 6.491,32.274l 59.666,0 l-28.361-148.736c-2.907-15.433-4.352-25.637-4.352-30.757
	c0-15.945, 6.802-23.899, 20.352-23.899c 16.987,0, 32.695,12.891, 47.25,38.51c 14.555,25.728, 21.833,53.723, 21.833,84.187
	c0,48.658-17.335,88.942-52.005,120.942c-34.651,32.055-79.159,48.091-133.467,48.091c-60.599,0-111.122-20.443-151.643-61.367
	C 79.872,327.918, 59.611,277.979, 59.611,219.045c0-59.392, 20.407-107.611, 61.093-144.859c 40.759-37.138, 92.16-55.698, 154.222-55.698
	c 46.043,0, 93.586,8.887, 142.537,26.661l 14.555-51.95C 384-23.607, 329.655-32, 269.074-32c-78.080,0-142.080,22.894-192,68.663
	C 25.673,83.438,0,144.439,0,219.813c0,72.869, 25.911,134.491, 77.824,184.759C 129.664,454.857, 193.445,480, 269.074,480c 69.339,0, 127.141-20.827, 173.477-62.446
	C 488.85,375.954, 512,323.822, 512,261.138z M 317.842,230.967c0,16.421-4.846,29.696-14.629,40.009c-9.655,10.203-22.51,15.47-38.51,15.47
	c-18.871,0-35.529-8.375-49.792-24.923c-14.299-16.585-21.449-36.133-21.449-58.587c0-17.335, 4.974-31.451, 14.903-42.386
	c 9.966-11.008, 23.168-16.512, 39.625-16.512c 19.401,0, 35.913,8.503, 49.499,25.6C 311.003,186.606, 317.842,207.104, 317.842,230.967z"  />
<glyph unicode="&#xe015;" d="M 216.247,188.123c-46.062,51.639-89.49,110.885-65.865,131.95c 33.829,30.171, 62.811,48.329, 10.167,122.149C 107.886,516.023, 66.999,464, 34.231,434.743
		c-37.815-33.737-11.538-169.088, 112.695-308.48c 124.27-139.374, 255.616-180.919, 293.431-147.163c 32.786,29.294, 89.088,63.982, 21.797,124.69
		c-67.31,60.782-88.594,34.030-122.423,3.858C 316.105,86.565, 262.272,136.485, 216.247,188.123z"  />
<glyph unicode="&#xe016;" d="M 351.835,480L 160.165,480 C 132.407,480, 109.714,456.485, 109.714,427.758l0-407.515 C 109.714-8.466, 132.407-32, 160.165-32l 191.671,0 C 379.63-32, 402.286-8.466, 402.286,20.242L 402.286,427.758 
		C 402.286,456.485, 379.63,480, 351.835,480z M 365.714,77.714L 146.286,77.714 L 146.286,425.143 l 219.429,0 L 365.714,77.714 zM 237.714,22.857A18.286,18.286 1620 1 1 274.286,22.857000000000028A18.286,18.286 1620 1 1 237.714,22.857000000000028z"  />
<glyph unicode="&#xe017;" d="M 384,208.256l-91.429,0 L 292.571-32 l-91.429,0 L 201.143,208.256 L 128,208.256 l0,86.473 l 73.143,0 c0,0,0,35.438,0,73.874C 201.143,426.697, 233.691,480, 316.251,480C 349.714,480, 384,476.635, 384,476.635L 384,388.571 
	c0,0-27.319,0-54.857,0c-29.787,0-36.571-6.839-36.571-30.702c0-3.529,0-4.315,0-3.968c0-6.528,0-22.565,0-59.173l 91.429,0 L 384,208.256 z"  />
<glyph unicode="&#xe018;" d="M 450.944,214.254C 409.143,38.784, 128.933-35.584,0,146.505c 49.408-48.805, 135.406-53.083, 189.934,5.358
	c-31.982-4.919-55.296,27.63-15.982,45.221c-35.346-4.041-54.967,15.451-62.994,32.018c 8.21,8.923, 17.426,13.093, 35.072,14.391
	c-38.656,9.435-52.974,29.056-57.381,52.864C 99.438,298.971, 112.841,301.239, 120.119,300.197C 86.327,318.61, 74.533,346.203, 76.398,366.958
	c 60.526-23.314, 99.090-42.002, 131.291-59.959c 11.483-6.345, 24.357-17.774, 38.857-32.311c 18.395,50.45, 41.088,102.491, 80.091,128.347
	c-0.585-5.943-3.639-11.319-7.643-15.817C 330.057,397.586, 344.448,404.791, 359.003,406.857c-1.646-11.374-17.445-17.737-26.953-21.413
	c 7.241,2.286, 45.55,19.968, 49.81,9.929c 4.846-11.447-26.496-16.841-31.854-18.743c-4.005-1.426-8.009-2.962-11.886-4.59
	c 48.53,4.955, 94.939-36.571, 108.507-88.101c 0.951-3.803, 1.938-7.808, 2.834-12.215c 17.701-6.839, 49.993,0.366, 60.416,7.022
	c-7.552-18.432-27.008-31.982-55.863-34.469c 13.897-5.906, 40.009-9.289, 58.002-6.107C 500.608,225.518, 482.194,214.034, 450.944,214.254z"  />
<glyph unicode="&#xe019;" d="M 274.286,370.286l 54.857,0 L 329.143,406.857 l-54.857,0 L 274.286,480 l-36.571,0 l0-73.143 l-54.857,0 l0-36.571 l 54.857,0 l0-38.857 L 182.857,269.714l 54.857-61.714L 237.714-32 l 36.571,0 L 274.286,208 l 54.857,61.714l-54.857,61.714L 274.286,370.286 z M 207.323,269.714L 237.714,303.909l0-68.37 
		L 207.323,269.714z M 304.677,269.714L 274.286,235.52L 274.286,303.909 L 304.677,269.714zM 109.714,187.429l 73.143,82.286L 109.714,352L 109.714,187.429 z M 128,303.909l 30.391-34.194L 128,235.52L 128,303.909 zM 329.143,269.714l 73.143-82.286L 402.286,352 L 329.143,269.714z M 384,235.52l-30.391,34.194L 384,303.909L 384,235.52 z"  />
<glyph unicode="&#xe01a;" d="M 420.645,122.551l-67.182,71.497c-5.559,5.925-14.629,15.579-20.187,21.486l-24.814,26.459l-3.639,0 L 304.823,311.424 l 17.17,0 
	c 4.718,0, 6.656,3.182, 4.297,7.077L 297.582,365.714c-2.377,3.895-6.254,10.277-8.613,14.153L 261.925,424.411L 261.925,444.142 l 15.634,0 
	c 2.322,0, 4.187,1.792, 4.187,4.005L 281.746,451.419 c0,2.213-1.883,3.986-4.187,3.986l-15.634,0 L 261.925,476.014 c0,2.213-1.883,3.986-4.206,3.986l-3.438,0 
	c-2.322,0-4.206-1.774-4.206-3.986l0-20.59 L 234.423,455.424 c-2.304,0-4.206-1.774-4.206-3.986l0-3.273 c0-2.213, 1.902-4.005, 4.206-4.005l 15.653,0 L 250.075,424.411 
	l-27.063-44.544c-2.359-3.877-6.235-10.258-8.594-14.153l-28.672-47.232c-2.377-3.895-0.439-7.077, 4.297-7.077l 17.17,0 l0-69.431 l-3.621,0 
	l-24.85-26.459c-5.559-5.906-14.629-15.561-20.187-21.486l-67.182-71.497C 85.815,116.663, 90.368,114.286, 101.449,114.286L 128,114.286 l0-131.419 C 128-25.289, 134.546-32, 146.286-32l 73.143,0 l0,54.857 
	c0,22.656, 12.745,36.571, 36.571,36.571s 36.571-13.915, 36.571-36.571l0-54.857 l 73.143,0 c 11.739,0, 18.286,6.711, 18.286,14.866L 384,114.286 l 26.551,0 C 421.65,114.286, 426.185,116.663, 420.645,122.551z M 277.541,265.691
	c0-1.993-1.518-3.621-3.383-3.621l-36.315,0 c-1.847,0-3.365,1.609-3.365,3.621L 234.478,311.424 l 12.91,0 c 4.754,0, 12.489,0, 17.225,0l 12.928,0 L 277.541,265.691 z"  />
<glyph unicode="&#xe01b;" d="M 54.857,278.857L 128,278.857L 128,96L 54.857,96zM 164.571,278.857L 237.714,278.857L 237.714,96L 164.571,96zM 274.286,278.857L 347.429,278.857L 347.429,96L 274.286,96zM 384,278.857L 457.143,278.857L 457.143,96L 384,96zM 36.571,77.714L 475.429,77.714L 475.429,41.143L 36.571,41.143zM0,22.857L 512,22.857L 512-13.714L0-13.714zM 275.822,443.429L 256.018,443.429L 236.197,443.429L 18.286,315.429L 18.286,297.143L 493.714,297.143L 493.714,315.429 	z"  />
<glyph unicode="&#xe01c;" d="M 400.914,102.875c-67.145,24.448-88.594,45.111-88.594,89.307c0,26.514, 20.443,17.847, 29.477,66.432c 3.749,20.169, 21.815,0.329, 25.326,46.336
		c0,18.341-9.893,22.894-9.893,22.894S 362.24,349.385, 364.233,370.286c 2.45,26.002-15.031,109.714-108.197,109.714C 162.816,480, 145.335,396.288, 147.803,370.286
		C 149.76,349.385, 154.77,327.845, 154.77,327.845S 144.896,323.291, 144.896,304.951c 3.438-46.007, 21.559-26.185, 25.307-46.336
		c 9.015-48.585, 29.477-39.918, 29.477-66.432c0-44.197-21.431-64.859-88.576-89.307C 43.776,78.318,0,53.303,0,36.242C0,19.182,0-32,0-32l 256.018,0 
		L 512-32 c0,0,0,51.182,0,68.242C 512,53.303, 468.261,78.318, 400.914,102.875z"  />
<glyph unicode="&#xe01d;" d="M 422.638,297.143L 365.714,297.143 L 365.714,341.449 C 365.714,428.727, 332.562,480, 255.982,480S 146.286,428.727, 146.286,341.449L 146.286,297.143 L 83.584,297.143 C 67.73,297.143, 54.857,279.79, 54.857,263.15l0-234.898
	c0-16.567, 12.288-34.322, 27.355-39.351l 34.359-11.685C 131.621-27.813, 156.873-32, 172.654-32l 166.674,0 c 15.799,0, 41.015,4.187, 56.046,9.216l 34.414,11.685
	C 444.837-6.071, 457.143,11.685, 457.143,28.251L 457.143,263.15 C 457.143,279.79, 438.51,297.143, 422.638,297.143z M 274.322,115.237L 274.322,41.143 l-36.645,0 l0,74.094 
	C 226.779,121.893, 219.429,134.144, 219.429,148.297c0,21.211, 16.329,39.131, 36.553,39.131C 276.187,187.429, 292.571,169.527, 292.571,148.297
	C 292.571,134.144, 285.239,121.893, 274.322,115.237z M 313.472,297.143l-114.944,0 L 198.528,353.518 C 198.528,397.038, 221.44,425.143, 255.982,425.143c 34.578,0, 57.49-28.105, 57.49-71.625
	L 313.472,297.143 z"  />
<glyph unicode="&#xe01e;" d="M 420.571,421.723L 384,333.714L 128,333.714 L 91.429,421.723c-23.296,0-36.571-18.341-36.571-40.759l0-372.187 C 54.857-13.659, 86.418-32, 109.714-32l 310.857,0 c 23.314,0, 36.571,18.341, 36.571,40.759L 457.143,380.946 
	C 457.143,403.383, 443.886,421.723, 420.571,421.723z M 347.429,370.286l 36.571,54.857l-54.857,0 l-36.571,54.857l-73.143,0 l-36.571-54.857L 128,425.143 l 36.571-54.857L 347.429,370.286 z"  />
<glyph unicode="&#xe01f;" d="M 492.325,352L 438.857,352 l0-329.143 l 53.467,0 C 503.186,22.857, 512,32.128, 512,43.429L 512,331.429 C 512,342.747, 503.186,352, 492.325,352zM 384,364.8C 384,403.986, 343.735,425.143, 315.136,425.143L 196.937,425.143 C 158.592,425.143, 128,394.057, 128,364.8L 128,352 L 109.714,352 l0-7.314 L 109.714,22.857 l 292.571,0 L 402.286,344.686 L 402.286,352 l-18.286,0 L 384,364.8 z M 182.857,368.439
		C 182.857,368.439, 177.225,388.571, 196.937,388.571c 19.694,0, 118.217,0, 118.217,0S 329.143,388.571, 329.143,368.439C 329.143,359.607, 329.143,354.779, 329.143,352l-146.286,0 L 182.857,368.439 zM0,331.429l0-288 C0,32.128, 8.887,22.857, 19.712,22.857L 73.143,22.857 L 73.143,352 L 19.712,352 C 8.887,352,0,342.747,0,331.429z"  />
<glyph unicode="&#xe020;" d="M0,480L0-32L 347.429-32L 347.429,132.571L 512,132.571L 512,480 	zM 384,96L 493.714,96L 384-13.714 	z"  />
<glyph unicode="&#xe021;" d="M 429.531,352.549L 191.415,475.301C 158.775,492.471, 100.773,460.087, 82.286,430.848C 74.039,417.81, 73.143,407.57, 73.143,402.231L 73.143,114.286 
	c 0.219-5.87, 7.625-13.824, 13.97-17.719c 13.202-8.082, 211.419-122.258, 217.106-125.787C 307.255-31.104, 310.857-32, 314.386-32
	c 3.035,0, 6.071,0.677, 8.814,2.048c 6.034,2.926, 5.925,8.704, 5.925,14.903L 329.125,276.096 c0,6.053, 0.293,11.685-5.467,14.702L 107.246,411.63
	c 2.45,4.754, 12.087,14.83, 29.787,24.082c 18.651,9.765, 32.603,6.089, 35.803,4.827c0,0, 207.726-111.159, 214.089-114.469
	c 6.327-3.31, 6.437-3.803, 6.437-9.454c0-5.669,0-276.279,0-276.279c0-13.769, 14.007-19.419, 24.283-19.419c 10.222,0, 21.211,10.039, 21.211,19.419
	L 438.857,337.847 C 438.857,343.899, 435.291,349.513, 429.531,352.549z"  />
<glyph unicode="&#xe022;" d="M 78.245,287.086l-8.85-12.69c-4.846-6.967-6.528-19.255-3.785-27.301l 25.435-80.567c 2.761-8.009, 10.697-18.597, 17.591-23.515
		l 239.067-168.631c 11.538-8.155, 24.594-9.582, 32.713,2.085l 108.654,156.379c 8.082,11.666, 5.266,27.739-6.327,35.913L 243.73,337.426
		c-6.93,4.901-19.474,8.795-27.922,8.667l-81.115,0.366C 126.245,346.331, 115.365,340.535, 110.501,333.55l-14.482-20.846
		C 60.251,340.041, 13.294,391.077, 36.955,459.429c 2.761,8.082-1.445,16.896-9.472,19.712C 19.511,481.938, 10.734,477.696, 7.954,469.614
		C-19.767,389.559, 30.153,324.096, 78.245,287.086z M 102.327,270.683c 5.504-3.291, 10.825-6.107, 15.726-8.448c 2.139-1.006, 4.37-1.499, 6.565-1.499
		c 5.76,0, 11.264,3.291, 13.915,8.887c 3.566,7.735, 0.329,16.951-7.369,20.59c-0.859,0.421-5.65,2.853-12.562,7.040
		c 13.751,10.075, 32.823,10.843, 47.543,0.457c 18.542-13.056, 23.040-38.802, 10.057-57.49c-12.965-18.651-38.473-23.186-57.033-10.112
		C 105.819,239.525, 99.803,255.506, 102.327,270.683z"  />
<glyph unicode="&#xe023;" d="M 361.765,107.941l-71.973,101.358l 3.858,32.731l 79.067-53.998l 20.407,28.288l-92.965,63.415l 8.046,76.965l-93.842,45.659L 129.499,312.686
		l-3.054-130.487l 39.918,0 l 1.17,111.945l 36.882,31.269l-1.408-126.318l 3.182-2.944L 118.857-25.527L 156.818-32l 96.274,188.215l 60.69-73.216l 32.786-113.993
		l 45.349,0 L 361.765,107.941zM 245.138,437.065A44.288,42.898 1620 1 1 333.714,437.065A44.288,42.898 1620 1 1 245.138,437.065z"  />
<glyph unicode="&#xe024;" d="M 128,269.714A45.714,45.714 1620 1 1 219.429,269.714A45.714,45.714 1620 1 1 128,269.714zM 457.143,388.571C 438.857,388.571, 54.857,388.571, 54.857,388.571S 36.571,388.571, 36.571,370.286s0-292.571,0-292.571s0-18.286, 18.286-18.286s 402.286,0, 402.286,0s 18.286,0, 18.286,18.286s0,292.571,0,292.571S 475.429,388.571, 457.143,388.571z M 438.857,96L 73.143,96 L 73.143,352 l 365.714,0 L 438.857,96 zM 420.571,114.286c0,0-18.304,109.714-73.161,109.714s-73.143-73.143-109.714-73.143s-36.571,18.286-73.143,18.286s-73.143-54.857-73.143-54.857L 420.571,114.286 z"  />
<glyph unicode="&#xe025;" d="M 256,362.679C 170.679,484.096,0,413.019,0,280.777c0-89.49, 85.248-153.289, 149.339-201.399
	C 216.009,29.367, 234.661,6.51, 256-13.714c 21.339,20.224, 39.168,37.797, 106.661,86.729C 427.721,120.137, 512,192.256, 512,281.728
	C 512,413.019, 341.339,484.096, 256,362.679z"  />
<glyph unicode="&#xe026;" d="M 219.429,480l-18.286,0 c-5.632,0-16.841-4.626-16.841-10.258L 182.857,352L 91.429,352 
		C 87.223,352, 81.957,351.013, 76.928,349.477C 71.899,347.922, 67.017,345.783, 63.616,343.406L 5.138,303.854C 1.701,301.513,0,298.386,0,295.278
		s 1.701-6.181, 5.138-8.558l 58.478-35.877c 3.401-2.341, 8.283-4.517, 13.33-6.053C 81.957,243.218, 87.223,242.286, 91.429,242.286l 91.429,0 l 1.445-264.009
		C 184.302-27.355, 195.511-32, 201.143-32l 18.286,0 c 5.632,0, 18.286,4.645, 18.286,10.295L 237.714,469.742 C 237.714,475.374, 225.061,480, 219.429,480z M 489.179,359.973l-53.778,38.875
		c-3.017,2.213-7.333,4.187-11.794,5.65C 419.145,405.943, 414.482,406.857, 410.77,406.857L 256,406.857 l 18.121-109.714l 136.649,0 c 3.712,0, 8.375,0.878, 12.837,2.341
		c 4.443,1.426, 8.759,3.438, 11.794,5.614l 53.778,38.912C 492.215,346.185, 493.714,349.074, 493.714,351.982S 492.215,357.76, 489.179,359.973z"  />
<glyph unicode="&#xe027;" d="M 40.795,224C 21.083,243.694,0,243.694,0,224c0-13.952,0-118.162,0-118.162C0,16.914, 68.663-32, 157.55-32C 170.423-32, 219.429-32, 219.429-32l0,78.775 
		C 219.429,46.775, 48.567,215.424, 40.795,224zM 471.223,224C 463.433,215.424, 292.571,46.775, 292.571,46.775l0,160.933 c 91.429,15.488, 99.858,80.238, 99.858,114.743C 392.43,361.838, 353.755,480, 353.755,480
		l-58.734-78.775L 255.817,480l-39.278-78.775L 157.477,480c0,0-38.656-118.162-38.656-157.55c0-37.083, 9.161-109.001, 118.875-117.321L 237.696-32 l 57.655,0 
		c0,0, 46.208,0, 59.081,0C 443.355-32, 512,16.914, 512,105.838c0,0,0,104.21,0,118.162C 512,243.694, 490.935,243.694, 471.223,224z"  />
<glyph unicode="&#xe028;" d="M 84.517,167.406c 11.904-47.451, 26.99-68.187, 77.385-89.966c 50.395-21.723, 74.313-45.44, 94.117-45.44c 19.785,0, 42.185,20.791, 92.562,42.514
	c 50.414,21.742, 36.955,28.361, 48.859,75.813l-141.403-67.822L 84.517,167.406z M 499.511,291.31L 286.373,409.088c-16.731,9.216-44.032,9.216-60.745,0
	L 12.507,291.31c-16.658-9.234-16.658-24.338,0-33.554l 213.12-117.778c 16.731-9.234, 44.032-9.234, 60.745,0l 137.783,76.142l-149.413,34.542
	c-5.76-1.408-12.123-2.194-18.725-2.194c-26.935,0-48.768,12.8-48.768,28.617c0,15.799, 21.815,28.599, 48.768,28.599
	c 20.901,0, 38.656-7.735, 45.586-18.597l 158.226-51.255l 39.68,21.925C 516.169,266.971, 516.169,282.075, 499.511,291.31z M 434.359,68.078
	c-1.646-9.691, 32.841-25.673, 36.133,2.761c 14.83,128.11-10.642,164.974-10.642,164.974l-35.675-19.73C 424.155,216.101, 454.437,187.666, 434.359,68.078z
	"  />
<glyph unicode="&#xe029;" d="M 193.426,159.451l-113.774,45.531l0-38.51 l 113.774-45.531L 193.426,159.451 z M 193.426,277.577L 79.634,323.109l0-38.491 l 113.774-45.531L 193.408,277.577 z M 499.511,475.099
		c-7.826,5.303-17.737,6.363-26.496,2.853L 256,391.168L 39.003,477.952C 30.226,481.481, 20.297,480.402, 12.489,475.099C 4.681,469.815,0,461.001,0,451.566l0-364.087 
		c0-11.611, 7.077-22.089, 17.883-26.386l 227.054-90.843c0,0, 4.626-1.481, 5.559-1.682C 252.325-31.781, 254.135-32, 256-32
		s 3.712,0.219, 5.541,0.567c 0.878,0.201, 5.541,1.682, 5.541,1.682l 227.054,90.843C 504.942,65.39, 512,75.867, 512,87.479L 512,451.566 
		C 512,461.001, 507.301,469.815, 499.511,475.099z M 227.584,26.222l-182.071,72.814L 45.513,417.829 l 182.071-72.814L 227.584,26.222 z M 466.487,99.035l-182.034-72.814L 284.453,344.997 
		L 466.487,417.829L 466.487,99.035 z M 432.384,204.983l-113.81-45.531l0-38.51 l 113.81,45.531L 432.384,204.983 z M 432.384,323.109l-113.81-45.531l0-38.491 l 113.81,45.531L 432.384,323.109 z"  />
<glyph unicode="&#xe02a;" d="M 438.4,297.143l-52.334,156.325C 382.171,464.128, 370.834,469.76, 360.722,466.066L 12.617,339.054C 2.487,335.342-2.578,323.73, 1.298,313.070L 54.857,160.951
		l0,81.554 C 54.857,279.259, 85.925,297.143, 122.057,297.143l 91.977,0 l 109.696,89.051L 387.237,297.143L 438.4,297.143 z M 475.429,260.571L 128,260.571 c-10.77,0-36.571-25.253-36.571-36.571l0-219.429 c0-11.337, 25.801-36.571, 36.571-36.571l 329.143,0 
		c 10.752,0, 54.857,25.234, 54.857,36.571L 512,224 C 512,235.319, 486.181,260.571, 475.429,260.571z M 464.238,41.143L 157.166,41.143 l0,34.981 l 47.25,109.952l 70.857-87.973l 66.487,68.151l 85.467,30.811
		l 37.010-82.45L 464.238,41.143 z"  />
<glyph unicode="&#xe02b;" d="M 353.335,441.893L 353.335,441.893c 4.279,0, 12.16-0.695, 17.189-5.376c 1.152-1.079, 4.645-4.315, 4.645-12.361
			c0-8.978-4.864-23.168-18.597-35.913c-16.786-15.616-44.434-27.429-64.329-27.429c-5.76,0-8.466,1.042-8.923,1.042c-0.037,0-0.091,0-0.091,0
			c-3.639,7.497, 4.389,40.046, 27.575,61.659C 323.182,435.035, 339.072,441.893, 353.335,441.893 M 353.335,480c-22.985,0-48.347-9.838-68.462-28.599
			c-34.67-32.329-54.912-91.922-27.922-117.029C 265.6,326.272, 278.126,322.743, 292.261,322.743c 29.751,0, 66.761,15.707, 90.295,37.614
			c 34.67,32.329, 40.942,78.885, 13.97,104.027C 385.207,474.917, 369.865,480, 353.335,480L 353.335,480zM 158.647,441.893c 14.245,0, 30.153-6.857, 42.514-18.359c 23.333-21.778, 31.323-54.619, 28.087-61.147c0-0.018-2.505-1.554-9.527-1.554
			c-19.895,0-47.543,11.794-64.329,27.429C 141.714,401.006, 136.814,415.214, 136.814,424.174c0,8.009, 3.493,11.264, 4.608,12.343
			C 146.487,441.198, 154.405,441.893, 158.647,441.893 M 158.647,480C 142.098,480, 126.793,474.917, 115.474,464.384C 88.503,439.241, 94.775,392.667, 129.463,360.357
			C 152.978,338.45, 189.934,322.743, 219.739,322.743c 14.135,0, 26.661,3.529, 35.31,11.611c 26.99,25.125, 6.747,84.718-27.904,117.029
			C 206.976,470.162, 181.632,480, 158.647,480L 158.647,480zM 475.429,169.143l0,109.714 c0,20.535-16.037,54.857-36.571,54.857l-164.187,0 l0-164.571 L 475.429,169.143 zM 274.67,132.571l0-164.571 L 438.857-32 c 20.535,0, 36.571,16.786, 36.571,37.339L 475.429,132.571 L 274.67,132.571 zM 237.33,169.143L 237.33,333.714 L 73.143,333.714 c-20.535,0-36.571-34.322-36.571-54.857l0-109.714 L 237.33,169.143 zM 36.571,132.571l0-127.232 C 36.571-15.214, 52.608-32, 73.143-32l 164.187,0 l0,164.571 L 36.571,132.571 z"  />
<glyph unicode="&#xe02c;" d="M 220.782,223.104c0,5.797-9.819,10.697-23.607,12.709c 4.242,4.041, 7.077,9.746, 7.077,16.274c0,8.631-4.827,15.909-11.721,19.529
		c 3.529,2.907, 5.961,7.241, 5.961,12.361c0,6.565-3.785,12.215-9.161,14.665c 5.376,1.975, 9.106,6.473, 9.106,11.685
		c0,5.12-3.675,9.509-8.832,11.502L 189.605,354.889 l-5.23,0 C 182.473,363.008, 181.029,387.109, 213.979,425.6c 7.918,9.216, 9.49,21.010, 4.389,32.384
		C 212.498,470.949, 199.259,480, 186.459,480c-0.457,0-0.969,0-1.463-0.018c-7.68-0.457-21.797-4.754-29.787-28.763
		C 141.531,410.35, 119.131,409.289, 118.857,409.289L 118.912,404.48c 1.061,0.037, 25.838,0.859, 40.613,45.147c 5.285,15.817, 14.427,24.85, 25.728,25.527
		c 11.648,0.713, 23.625-7.479, 28.91-19.255c 2.56-5.614, 5.449-16.494-3.602-27.063c-32.933-38.51-33.097-63.579-30.958-73.929L 176.969,354.907 L 176.969,321.829 
		C 171.813,319.835, 168.21,315.447, 168.21,310.327c0-5.211, 3.73-9.71, 9.106-11.685c-5.449-2.45-9.234-8.101-9.234-14.665
		c0-5.102, 2.414-9.454, 5.943-12.361c-6.802-3.639-11.63-10.898-11.63-19.529c0-6.528, 2.816-12.215, 7.058-16.274
		c-13.861-2.011-23.589-6.912-23.589-12.709c0-5.467, 8.887-10.185, 21.778-12.361c-16.366-26.971-38.528-74.295-38.528-96.786
		c0-32.421, 19.621-58.752, 54.217-58.752c 35.675,0, 54.162,26.313, 54.162,58.752c0,22.528-21.431,69.979-37.742,96.951
		C 212.151,213.138, 220.782,217.728, 220.782,223.104zM 391.808,37.833c-4.041,22.071-33.627,64.384-54.51,87.589c 11.794,4.681, 19.438,10.971, 18.45,16.219
		c-1.042,5.687-11.502,8.521-25.454,7.753c 3.419,4.846, 5.175,11.008, 4.005,17.353c-1.573,8.521-7.662,14.683-14.976,16.841
		c 2.981,3.584, 4.517,8.32, 3.602,13.33c-1.17,6.473-5.979,11.264-11.63,12.581c 4.882,2.981, 7.717,8.155, 6.784,13.275
		c-0.896,5.029-5.303,8.613-10.734,9.545l-5.943,32.421l-5.138-1.042c-3.291,7.607-9.033,30.994, 16.366,75.355
		c 6.162,10.642, 5.559,22.473-1.573,32.677c-8.137,11.538-22.711,17.774-35.291,15.232c-0.421-0.11-0.969-0.219-1.408-0.347
		c-7.515-1.957-20.553-9.015-24.064-34.176c-6.071-42.843-27.922-48.384-28.105-48.402L 223.086,299.337c 1.024,0.238, 25.125,5.979, 31.689,52.425
		c 2.322,16.603, 9.673,27.319, 20.645,30.245c 11.319,3.035, 24.558-2.633, 31.909-13.111c 3.456-5.029, 8.247-15.141, 1.298-27.319
		c-25.417-44.398-21.010-69.047-17.061-78.811l-2.523-0.494l 5.888-32.475c-4.699-2.962-7.479-8.009-6.565-13.056
		c 1.006-5.102, 5.431-8.777, 11.045-9.637c-4.901-3.493-7.607-9.801-6.437-16.219c 0.933-5.010, 4.133-8.759, 8.101-10.953
		c-6.071-4.937-9.472-13.038-7.973-21.541c 1.17-6.363, 4.955-11.429, 9.893-14.537c-13.221-4.754-21.925-11.483-20.882-17.17
		c 1.006-5.376, 10.606-8.247, 23.607-7.771c-11.136-29.806-24.393-80.695-20.352-102.784c 5.815-31.854, 29.842-53.723, 63.762-46.83
		C 384.274-23.57, 397.696,5.943, 391.808,37.833z"  />
<glyph unicode="&#xe02d;" d="M 460.8,461.714L 51.2,461.714 C 23.040,461.714,0,425.929,0,397.806l0-281.161 c0-28.123, 22.601-55.625, 50.213-61.147L 162.121,41.143c0,0-96.329-54.857-34.121-54.857l 256,0 
	c 62.19,0-34.121,54.857-34.121,54.857l 111.927,14.354C 489.399,61.019, 512,88.521, 512,116.645L 512,397.806 C 512,425.929, 488.978,461.714, 460.8,461.714z M 457.143,114.286L 54.857,114.286 L 54.857,406.857 l 402.286,0 L 457.143,114.286 z"  />
<glyph unicode="&#xe02e;" d="M0,388.571l0-420.571 l 512,0 L 512,388.571 L0,388.571 z M 440.32,41.143L 71.68,41.143 L 71.68,315.429 l 368.64,0 L 440.32,41.143 zM 235.52,459.52A20.48,20.48 1620 1 1 276.48,459.52A20.48,20.48 1620 1 1 235.52,459.52zM 150.601,339.639L 136.137,354.121L 248.777,466.761L 263.241,452.279L 150.601,339.639 	zM 361.417,339.639L 248.777,452.279L 263.241,466.761L 375.899,354.121L 361.417,339.639 	z"  />
<glyph unicode="&#xe02f;" d="M 448.311,416.293c-42.295,42.295-74.039,35.95-74.039,35.95l-148.059-148.041l-169.216-169.179L 18.286-13.714l 148.718,38.766l 169.143,169.179l 148.078,148.005
		C 484.224,342.235, 490.606,373.979, 448.311,416.293z M 158.647,41.801l-47.561-10.222c-4.59,8.594-10.13,17.152-20.224,27.301
		c-10.112,10.112-18.725,15.616-27.319,20.242l 10.258,47.579l 13.769,13.714c0,0, 25.893-0.494, 55.113-29.733c 29.221-29.239, 29.733-55.15, 29.733-55.15
		L 158.647,41.801z"  />
<glyph unicode="&#xe030;" d="M 182.839,187.429A73.143,73.143 1620 1 1 329.125,187.42899999999997A73.143,73.143 1620 1 1 182.839,187.42899999999997zM 460.8,352l-61.458,0 c-8.43,0-17.518,6.546-20.187,14.574L 363.227,406.857c-2.67,8.009-11.758,18.286-20.187,18.286L 168.942,425.143 C 160.512,425.143, 151.406,414.866, 148.736,406.857
		L 132.864,366.574C 130.194,358.546, 121.088,352, 112.64,352L 51.2,352 C 23.040,352,0,325.303,0,297.143l0-237.714 c0-28.178, 23.040-54.857, 51.2-54.857l 409.6,0 c 28.178,0, 51.2,26.679, 51.2,54.857L 512,297.143 
		C 512,325.303, 488.978,352, 460.8,352z M 256.018,59.429C 185.344,59.429, 128,116.736, 128,187.41C 128,258.103, 185.344,315.429, 256.018,315.429C 326.674,315.429, 384,258.103, 384,187.41
		C 384,116.736, 326.674,59.429, 256.018,59.429z M 457.143,260.571l-36.571,0 l0,36.571 l 36.571,0 L 457.143,260.571 z"  />
<glyph unicode="&#xe033;" d="M 146.505,406.857l 0.018-305.829c-17.28,3.602-37.394,2.249-57.344-5.157c-44.855-16.622-60.69-57.216-48.786-90.533
	c 11.886-33.353, 46.976-46.866, 91.867-30.19c 38.089,14.171, 69.467,45.513, 68.882,75.081c0,0,0,153.051,0,246.912l 183.461,54.857l0-197.431 
	c-17.28,3.566-37.394,2.231-57.362-5.175c-44.873-16.658-60.69-57.216-48.805-90.569s 46.994-46.848, 91.867-30.171
	c 38.107,14.171, 69.157,45.531, 68.535,75.081L 438.839,480 L 146.505,406.857z"  />
<glyph unicode="&#xe031;" d="M 105.911-25.911c 7.991,25.655, 20.078,61.733, 36.334,113.957c 70.711,11.173, 99.931-8.905, 144.841,71.296
	c-36.462-11.173-80.384,20.681-78.025,34.487c 2.341,13.806, 102.199-9.984, 167.589,82.889c-82.45-18.158-108.745,21.833-98.121,27.867
	c 24.503,13.952, 97.317,5.797, 136.137,43.593c 19.986,19.438, 29.33,66.779, 21.266,83.675c-9.819,20.389-69.449,50.798-102.309,47.963
	c-32.859-2.853-84.389-125.147-99.657-124.197c-15.323,0.969-18.377,54.766, 8.283,104.795c-28.142-12.453-79.671-51.163-95.854-84.279
	C 116.334,314.569, 149.266,173.312, 138.697,168.283c-10.569-5.047-46.135,64.823-56.722,96.494c-14.501-48.53-14.848-97.17, 27.502-161.829
	c-16-42.368-24.686-91.154-26.021-115.968C 82.889-32.859, 102.382-37.138, 105.911-25.911z"  />
<glyph unicode="&#xe032;" d="M 72.155,238.391l-50.67-21.285C 1.445,209.792,0,156.142,0,137.893l 0.073-5.029L 95.451,132.864 c 5.138,25.253, 15.067,48.274, 34.194,55.552l 67.401,28.343
	c 0.494,0.293, 1.079,0.567, 1.646,0.914l-49.335,20.736c-7.186,3.438-12.489,8.777-14.427,13.477c 6.839,7.296, 12.27,16.731, 14.446,25.161L 152.539,278.857
	c 4.187,11.392, 5.522,21.522, 4.992,30.866L 155.209,311.479c 0.622,8.466, 0.366,23.662-3.694,31.104C 144.64,355.145, 127.232,363.831, 113.408,363.959l-5.303,0 
	C 94.281,363.831, 76.873,355.145, 69.998,342.583C 65.92,335.159, 65.682,319.945, 66.286,311.479L 63.982,309.705C 63.451,300.379, 64.786,290.249, 68.974,278.857l 3.127-1.829
	c 2.213-8.43, 7.625-17.865, 14.482-25.161C 84.645,247.186, 79.323,241.829, 72.155,238.391L 72.155,238.391z M 362.661,238.391l-49.353-20.736
	c 0.567-0.347, 1.152-0.622, 1.664-0.914l 67.401-28.343c 19.127-7.278, 29.056-30.299, 34.194-55.552l 95.36,0 L 512,137.893
	c0,18.249-1.445,71.899-21.504,79.214l-50.67,21.285c-7.186,3.438-12.489,8.777-14.427,13.477c 6.839,7.296, 12.27,16.731, 14.482,25.161l 3.127,1.829
	c 4.187,11.392, 5.541,21.522, 5.010,30.866l-2.322,1.774c 0.603,8.466, 0.366,23.662-3.694,31.104c-6.875,12.562-24.265,21.248-38.126,21.376
	l-5.285,0 c-13.842-0.128-31.25-8.814-38.126-21.376c-4.078-7.442-4.315-22.638-3.694-31.104l-2.322-1.774
	c-0.512-9.344, 0.805-19.456, 4.992-30.866l 3.163-1.829c 2.158-8.43, 7.607-17.865, 14.427-25.161C 375.131,247.186, 369.829,241.829, 362.661,238.391
	L 362.661,238.391z M 204.087,201.417l-68.133-28.635c-26.971-9.838-28.928-82.011-28.928-106.587L 107.154,59.429l 297.71,0 l 0.091,6.747
	c0,24.576-1.938,96.75-28.91,106.587l-68.133,28.635c-9.655,4.571-16.805,11.813-19.401,18.121c 9.161,9.801, 16.494,22.473, 19.438,33.829
	l 4.224,2.469c 5.65,15.305, 7.424,28.928, 6.729,41.49l-3.127,2.377c 0.823,11.374, 0.494,31.817-4.974,41.838
	C 301.568,358.437, 278.181,370.121, 259.547,370.286l-7.095,0 c-18.633-0.165-42.039-11.849-51.273-28.745c-5.486-10.021-5.797-30.482-4.992-41.838l-3.127-2.377
	c-0.677-12.562, 1.097-26.185, 6.766-41.49l 4.206-2.469c 2.944-11.337, 10.277-24.009, 19.438-33.829C 220.891,213.211, 213.723,205.989, 204.087,201.417
	L 204.087,201.417z"  />
<glyph unicode="&#xe034;" d="M 219.429,210.048L 219.429,205.714L 223.397,205.714L 256.933,169.143L 290.45,205.714L 292.571,205.714L 292.571,208.018L 357.504,278.857L 292.571,278.857L 292.571,388.571L 219.429,388.571L 219.429,278.857L 156.343,278.857 	zM 384,187.429L 384,114.286L 128,114.286L 128,187.429L 73.143,187.429L 73.143,114.286L 73.143,59.429L 128,59.429L 384,59.429L 438.857,59.429L 438.857,114.286L 438.857,187.429 	z"  />
<glyph unicode="&#xe035;" d="M 274.286,388.571L 322.67,340.187L 208.969,226.487L 260.681,174.775L 374.4,288.457L 420.571,242.286L 420.571,388.571 	zM 365.714,114.286L 146.286,114.286L 146.286,333.714L 219.429,333.714L 219.429,388.571L 146.286,388.571L 91.429,388.571L 91.429,333.714L 91.429,114.286L 91.429,59.429L 146.286,59.429L 365.714,59.429L 420.571,59.429L 420.571,114.286L 420.571,187.429L 365.714,187.429 	z"  />
<glyph unicode="&#xe036;" d="M 256.018,480c-70.693,0-134.693-28.672-181.029-74.99C 28.635,358.674,0,294.674,0,224
	c0-70.693, 28.635-134.693, 74.99-181.029S 185.326-32, 256.018-32c 70.674,0, 134.674,28.635, 181.010,74.99c 46.299,46.336, 74.971,110.336, 74.971,181.029
	c0,70.674-28.654,134.674-74.971,181.010C 390.693,451.365, 326.693,480, 256.018,480L 256.018,480L 256.018,480z M 234.039,428.837L 234.039,428.837
	c 7.205,0.768, 14.537,1.17, 21.979,1.17c 35.035,0, 68.041-8.741, 96.933-24.192c-6.784-6.126-15.397-14.592-16.329-17.755
	c-1.298-4.407-6.217-19.767-10.258-20.48c-4.041-0.731-8.046,1.829-7.333-2.944c 0.75-4.754-5.541-5.998-5.541-5.998l-5.047-2.048
	c0,0, 4.389-25.984, 12.087-25.984c 7.662,0, 13.513,10.624, 17.902,14.647c 4.37,4.023, 9.509,19.017, 14.994,12.782c 5.504-6.217, 15.707-20.846, 20.48-21.961
	c 4.773-1.079, 20.133,1.115, 23.424-2.542c 3.31-3.657, 11.813-7.314, 13.513-2.944c 0.914,2.304, 8.375,5.723, 15.653,8.978
	c 2.377-3.493, 4.663-7.058, 6.784-10.697c-14.025-1.792-50.871-10.606-57.563-8.795c-8.046,2.213-15.707,10.258-19.035,11.008
	c-3.273,0.731-10.222-1.481-17.17-0.75c-6.967,0.75-14.994-4.389-18.999-6.93c-4.041-2.56-5.87-10.24-8.777-14.629
	c-2.962-4.389-5.12-6.949-11.721-13.184c-6.583-6.217-2.213-11.685-1.115-20.114s-1.81-15.726-1.81-15.726s 12.251-24.265, 18.834-32.329
	c 6.565-8.046, 51.237,2.944, 57.819,1.481c 6.601-1.481, 1.243-13.714, 8.777-29.312c 7.552-15.561, 1.463-96.64, 12.471-100.279
	c 10.971-3.675, 38.034,42.459, 43.154,52.718c 4.187,8.32, 20.901,53.541, 23.552,82.505c 0.165-3.493, 0.293-7.003, 0.293-10.533
	c0-56.923-23.095-108.398-60.379-145.682c-37.248-37.285-88.759-60.343-145.646-60.343c-24.741,0-48.439,4.352-70.437,12.343
	c 1.609,4.992, 1.865,19.675, 6.199,28.965c 4.955,10.551, 7.296,14.245, 25.253,28.544c 17.92,14.245, 36.187,55.607, 43.538,69.504
	c 7.278,13.879, 10.258,17.17, 14.245,25.253c 4.041,8.027-15.707,11.721-21.211,15.726c-5.504,4.005-31.067,14.994-40.247,24.869
	c-9.143,9.874-35.127,19.749-50.816,26.697c-12.16,5.358-23.643-2.341-32.457-11.831c-4.809,3.255-10.551,8.174-9.509,12.727
	c 1.664,7.607-2.139,19.456-2.56,23.662c-0.421,4.224, 6.747,16.933-2.121,13.989C 107.026,285.44, 87.991,275.31, 90.514,286.72
	c 2.56,11.429, 5.083,39.771, 24.082,36.389c 19.072-3.383, 13.129-22.839, 21.614-20.718c 8.43,2.121, 13.513,19.895, 18.194,25.783
	c 4.645,5.943, 28.763,35.566, 38.053,38.089c 9.326,2.542, 13.531,11.849, 23.259,17.792c 9.728,5.888, 18.487,3.493, 18.213,17.335
	C 233.71,411.685, 233.911,422.071, 234.039,428.837L 234.039,428.837z M 172.983,35.419L 172.983,35.419c-23.515,10.35-44.745,24.997-62.665,42.898
	c-37.248,37.285-60.343,88.759-60.343,145.682c0,28.379, 5.742,55.424, 16.128,80.037c 4.59-4.681, 9.71-9.271, 10.002-11.831
	c 0.585-4.754-2.505-16.914, 6.784-22.839c 9.326-5.943, 19.054-10.167, 19.877-14.373c 0.859-4.224, 1.28-10.167, 9.344-14.391
	c 4.242-2.267, 9.527-5.376, 13.513-7.79c-0.896-1.152-1.792-2.286-2.633-3.419c-9.143-12.471-1.81-37.339-0.731-45.769
	c 1.097-8.393, 14.994-24.85, 23.058-31.067c 8.027-6.235, 9.874-25.253, 9.527-32.183c-0.384-7.003, 8.393-31.506, 8.393-40.649s 8.046-33.28, 8.046-33.28
	S 172.105,40.539, 172.983,35.419L 172.983,35.419z M 461.751,234.551c-0.037,0.475-0.091,1.006-0.091,1.573L 461.751,234.551z"  />
<glyph unicode="&#xe037;" d="M 54.857,333.714l0-109.714 l 146.286,0 l0-256 l 109.714,0 L 310.857,224 l 146.286,0 L 457.143,333.714 l-146.286,0 L 310.857,480 l-109.714,0 l0-146.286 L 54.857,333.714 z"  />
<glyph unicode="&#xe038;" d="M 280.631,102.327c0,0, 52.699-0.622, 62.281,52.937
		c 3.712,58.459-53.541,69.998-53.541,69.998s 6.528,86.546-73.874,96.384c-68.937,6.93-89.874-56.21-89.874-56.21s-20.754,19.675-48.933,3.621
		c-25.198-15.342-20.736-43.447-20.736-43.447S0,214.894,0,158.592c 1.554-57.106, 60.416-55.698, 60.416-55.698M 338.834,318.098c 56.393,0, 102.089-45.074, 102.089-100.681
		c0-79.707-102.089-100.718-102.089-100.718l-8.247,0.073c0,0, 19.858,10.167, 19.858,47.086c0,53.705-52.462,66.962-52.462,67.822
		c-1.701,46.958-21.522,64.731-21.522,64.731s 12.526,8.393, 12.526,8.411C 308.992,315.026, 329.289,318.098, 338.834,318.098zM 338.834,388.571l-28.727-56.631l 57.454,0 L 338.834,388.571zM 461.531,338.798l-60.946-20.023l 40.631-40.027L 461.531,338.798zM 512,216.978l-57.435-28.325l0,56.631 L 512,216.978zM 461.531,96l-60.946,20.005l 40.631,40.046L 461.531,96z"  />
<glyph unicode="&#xe039;" d="M 512,224c0,18.121-11.264,33.591-27.136,39.881c 3.986,5.102, 5.595,11.941, 3.803,18.688c-2.487,9.234-10.624,15.433-19.694,15.854
	c 14.994,13.221, 19.109,35.621, 8.741,53.577c-9.417,16.293-27.886,24.027-45.367,20.626c 0.841,6.345-1.115,13.001-5.998,17.92
	c-6.217,6.199-15.287,7.79-23.003,4.791c 6.162,18.834-1.481,40.046-19.346,50.377c-16.878,9.746-37.669,6.656-51.054-6.181
	c-2.359,6.345-7.589,11.483-14.592,13.349c-7.68,2.066-15.506-0.329-20.736-5.595C 293.029,466.048, 276.169,480, 256,480
	c-20.169,0-37.065-13.952-41.618-32.731C 209.152,452.535, 201.326,454.949, 193.646,452.864c-7.003-1.865-12.233-7.003-14.555-13.349
	C 165.687,452.37, 144.896,455.442, 128,445.678C 110.135,435.383, 102.528,414.153, 108.672,395.337C 100.974,398.336, 91.886,396.745, 85.669,390.546
	c-4.882-4.919-6.839-11.575-5.998-17.92C 62.19,376.027, 43.703,368.293, 34.286,352c-10.368-17.957-6.254-40.357, 8.741-53.577
	c-9.070-0.421-17.225-6.601-19.694-15.854c-1.81-6.747-0.165-13.586, 3.803-18.688C 11.264,257.591,0,242.121,0,224
	c0-20.498, 14.409-37.632, 33.627-41.874c-8.393-4.626-12.891-14.555-10.295-24.265c 1.92-7.15, 7.259-12.489, 13.769-14.738
	c-9.966-13.312-11.666-31.799-2.816-47.104c 9.929-17.189, 29.934-24.869, 48.238-19.95c-4.955-8.229-3.95-19.090, 3.145-26.203
	c 5.742-5.723, 13.915-7.424, 21.193-5.285C 104.869,28.032, 112.677,11.118, 128,2.304c 16.384-9.454, 36.352-6.857, 49.792,4.992
	c 0.402-9.070, 6.619-17.262, 15.854-19.749c 8.594-2.286, 17.371,0.969, 22.51,7.552C 222.446-20.754, 237.897-32, 256-32
	c 18.103,0, 33.554,11.246, 39.845,27.099c 5.138-6.583, 13.934-9.838, 22.491-7.552c 9.234,2.487, 15.47,10.679, 15.854,19.749
	c 13.44-11.849, 33.426-14.446, 49.792-4.992c 15.342,8.814, 23.15,25.746, 21.157,42.295c 7.259-2.139, 15.451-0.421, 21.175,5.285
	c 7.113,7.113, 8.119,17.957, 3.182,26.203c 18.267-4.937, 38.29,2.743, 48.201,19.95c 8.85,15.305, 7.168,33.81-2.798,47.104
	c 6.51,2.249, 11.849,7.589, 13.769,14.738c 2.597,9.71-1.902,19.639-10.295,24.265C 497.591,186.386, 512,203.502, 512,224z M 471.899,282.953
	c 2.414-1.39, 3.237-4.48, 1.847-6.875c-1.39-2.432-4.48-3.237-6.875-1.847c-2.414,1.371-3.273,4.462-1.865,6.894
	C 466.414,283.52, 469.486,284.343, 471.899,282.953z M 435.511,351.104c 9.691,5.614, 22.144,2.267, 27.739-7.442c 5.632-9.728, 2.304-22.144-7.424-27.776
	c-9.71-5.595-22.144-2.286-27.758,7.442S 425.783,345.49, 435.511,351.104z M 412.288,382.208c 2.798,0, 5.047-2.267, 5.065-5.029
	c-0.018-2.816-2.267-5.047-5.065-5.047c-2.761,0-5.029,2.249-5.029,5.047C 407.259,379.959, 409.527,382.208, 412.288,382.208z M 347.904,423.826
	c 5.595,9.728, 18.011,13.056, 27.758,7.424c 9.71-5.614, 13.056-18.048, 7.442-27.758c-5.632-9.746-18.030-13.056-27.794-7.442
	C 345.618,401.664, 342.29,414.098, 347.904,423.826z M 311.058,438.4c 2.414,1.39, 5.486,0.567, 6.894-1.847c 1.39-2.432, 0.549-5.486-1.865-6.912
	c-2.395-1.39-5.504-0.53-6.875,1.883C 307.84,433.92, 308.626,437.010, 311.058,438.4z M 255.982,463.323c 11.209,0, 20.334-9.088, 20.334-20.334
	c0-11.227-9.125-20.315-20.334-20.315c-11.209,0-20.297,9.106-20.297,20.315C 235.685,454.235, 244.773,463.323, 255.982,463.323z M 195.291,436.425
	c 1.39,2.432, 4.462,3.218, 6.894,1.865c 2.414-1.39, 3.218-4.462, 1.847-6.912c-1.39-2.414-4.462-3.218-6.912-1.829
	C 194.706,430.921, 193.902,434.011, 195.291,436.425z M 136.302,431.25c 9.746,5.614, 22.162,2.286, 27.794-7.424C 169.691,414.098, 166.382,401.664, 156.635,396.069
	C 146.944,390.455, 134.491,393.765, 128.896,403.511C 123.264,413.221, 126.592,425.637, 136.302,431.25z M 101.065,381.879c 2.798,0, 5.047-2.267, 5.047-5.029
	c0-2.779-2.267-5.047-5.047-5.047c-2.779,0-5.029,2.267-5.029,5.047C 96.018,379.63, 98.286,381.879, 101.065,381.879z M 48.731,343.662
	c 5.614,9.691, 18.066,13.056, 27.776,7.442C 86.217,345.49, 89.527,333.056, 83.931,323.346C 78.299,313.618, 65.902,310.309, 56.174,315.886
	C 46.446,321.518, 43.118,333.934, 48.731,343.662z M 41.691,282.478c 2.432,1.39, 5.504,0.585, 6.894-1.847c 1.39-2.395, 0.567-5.504-1.847-6.894
	c-2.414-1.371-5.504-0.549-6.894,1.865C 38.455,278.034, 39.278,281.106, 41.691,282.478z M 36.974,203.666c-11.209,0-20.315,9.125-20.315,20.334
	c0,11.209, 9.106,20.315, 20.315,20.315c 11.246,0, 20.315-9.106, 20.315-20.315C 57.307,212.773, 48.219,203.666, 36.974,203.666z M 41.819,159.817
	c-2.414,1.39-3.255,4.48-1.865,6.894c 1.408,2.414, 4.48,3.255, 6.894,1.865c 2.395-1.408, 3.218-4.462, 1.847-6.894
	C 47.305,159.269, 44.215,158.446, 41.819,159.817z M 76.489,96.896c-9.71-5.614-22.144-2.267-27.776,7.442c-5.614,9.728-2.286,22.162, 7.442,27.776
	c 9.728,5.595, 22.126,2.267, 27.758-7.461C 89.527,114.907, 86.217,102.51, 76.489,96.896z M 101.413,60.562c-2.798,0-5.047,2.286-5.047,5.065
	c0,2.743, 2.267,5.010, 5.047,5.010c 2.779,0, 5.047-2.267, 5.047-5.010C 106.459,62.848, 104.192,60.562, 101.413,60.562z M 164.096,24.155
	c-5.614-9.71-18.048-13.056-27.758-7.424c-9.746,5.632-13.056,18.048-7.442,27.758c 5.614,9.728, 18.030,13.038, 27.739,7.424
	C 166.382,46.318, 169.691,33.883, 164.096,24.155z M 202.642,4.389c-2.395-1.39-5.504-0.567-6.875,1.847c-1.39,2.414-0.567,5.504, 1.847,6.894
	s 5.486,0.567, 6.894-1.847C 205.879,8.869, 205.056,5.778, 202.642,4.389z M 255.982-15.342c-11.209,0-20.297,9.106-20.297,20.334
	s 9.088,20.297, 20.297,20.297c 11.209,0, 20.334-9.070, 20.334-20.297S 267.191-15.342, 255.982-15.342z M 318.409,6.382
	c-1.39-2.45-4.462-3.273-6.894-1.883s-3.237,4.48-1.829,6.894c 1.353,2.432, 4.425,3.237, 6.839,1.865
	C 318.976,11.849, 319.799,8.759, 318.409,6.382z M 375.662,16.75c-9.728-5.65-22.162-2.304-27.758,7.406
	c-5.632,9.71-2.286,22.162, 7.406,27.758c 9.746,5.614, 22.162,2.304, 27.794-7.424C 388.718,34.779, 385.371,22.363, 375.662,16.75z
	 M 256.055,31.707c-106.075,0-192.091,85.979-192.091,192.055c0,106.094, 86.016,192.091, 192.091,192.091c 106.094,0, 192.055-85.998, 192.055-192.091
	C 448.11,117.705, 362.149,31.707, 256.055,31.707z M 412.617,60.873c-2.779,0-5.029,2.267-5.029,5.047c0,2.798, 2.249,5.047, 5.029,5.047
	s 5.047-2.249, 5.047-5.047C 417.682,63.141, 415.415,60.873, 412.617,60.873z M 463.25,104.338c-5.614-9.71-18.030-13.056-27.739-7.442
	c-9.728,5.632-13.056,18.011-7.442,27.758s 18.030,13.056, 27.758,7.461C 465.554,126.501, 468.882,114.066, 463.25,104.338z M 472.009,160.311
	c-2.432-1.408-5.504-0.585-6.912,1.829c-1.371,2.432-0.549,5.504, 1.865,6.912c 2.432,1.39, 5.504,0.567, 6.894-1.865
	C 475.246,164.773, 474.423,161.682, 472.009,160.311z M 475.008,203.666c-11.227,0-20.297,9.125-20.297,20.334c0,11.209, 9.070,20.315, 20.297,20.315
	c 11.209,0, 20.334-9.106, 20.334-20.315C 495.342,212.773, 486.217,203.666, 475.008,203.666z M 388.681,356.407c-33.938,33.957-80.841,54.949-132.626,54.949
	c-51.803,0-98.688-20.974-132.626-54.949c-33.938-33.938-54.949-80.823-54.949-132.626c0-51.803, 21.010-98.67, 54.949-132.626
	c 33.938-33.92, 80.823-54.912, 132.626-54.912c 51.785,0, 98.67,20.974, 132.626,54.912c 33.938,33.957, 54.93,80.823, 54.93,132.626
	C 443.611,275.602, 422.619,322.45, 388.681,356.407z M 256.055,59.41c-90.789,0-164.389,73.6-164.389,164.389c0,90.77, 73.6,164.352, 164.389,164.352
	c 90.77,0, 164.334-73.582, 164.334-164.352C 420.389,133.010, 346.825,59.41, 256.055,59.41z"  />
<glyph unicode="&#xe03a;" d="M 478.566,412.544C 469.786,409.446, 35.149,256.307, 26.598,253.286c-7.27-2.56-8.909-8.832-0.256-12.262
	c 10.266-4.122, 97.178-38.938, 97.178-38.938L 123.494,202.086 l 57.626-23.091c0,0, 277.427,203.75, 281.19,206.49c 3.763,2.765, 8.141-2.432, 5.402-5.402
	c-2.739-2.995-201.498-217.958-201.498-217.958c-0.026,0-0.026,0-0.026,0l-11.571-12.902l 15.334-8.243l0,0c0,0, 119.040-64.077, 127.514-68.659
	c 7.424-3.994, 17.101-0.666, 19.251,8.576c 2.534,10.906, 72.832,313.907, 74.394,320.614C 493.158,410.291, 487.373,415.642, 478.566,412.544z M 180.608,40.653
	c0-6.323, 3.558-8.064, 8.474-3.61c 6.4,5.837, 72.934,65.536, 72.934,65.536l-81.408,42.138L 180.608,40.653 z"  />
<glyph unicode="&#x20;" horiz-adv-x="256" />
</font>
</defs>
</svg>
